<svg width="832" height="199" viewBox="0 0 832 199" fill="none" xmlns="http://www.w3.org/2000/svg">
<g filter="url(#filter0_f_108_242)">
<rect x="109" y="141" width="118" height="115" rx="57.5" fill="#04AE15"/>
</g>
<g filter="url(#filter1_f_108_242)">
<rect x="611" y="135" width="118" height="115" rx="57.5" fill="#0400C8"/>
</g>
<g clip-path="url(#clip0_108_242)">
<path d="M151.097 9.58191C148.575 9.59327 147.314 9.59846 146.824 10.4537C146.335 11.3083 146.941 12.4474 148.154 14.7249L148.468 15.3138C148.812 15.9606 148.985 16.2847 149.015 16.6437C149.045 17.0037 148.929 17.3591 148.698 18.0689L148.487 18.7156C147.674 21.2158 147.267 22.4653 147.889 23.1983C148.51 23.9323 149.75 23.6632 152.227 23.1266L152.869 22.9883C153.573 22.835 153.925 22.7593 154.263 22.8344C154.602 22.9096 154.889 23.1268 155.463 23.5634L155.985 23.9597C158.004 25.493 159.014 26.2598 159.886 25.8591C160.761 25.4569 160.92 24.1524 161.239 21.5427M163.228 18.0667C165.289 16.5161 166.32 15.7397 166.238 14.7579C166.156 13.7757 165.016 13.2371 162.734 12.1619L162.144 11.8836C161.496 11.5781 161.173 11.4254 160.944 11.1566C160.717 10.8881 160.611 10.5338 160.4 9.82519L160.207 9.18013C159.461 6.68776 159.089 5.44168 158.165 5.23671C157.24 5.03174 156.376 6.00381 154.648 7.94773" stroke="#4557F4" stroke-width="1.5" stroke-linecap="round"/>
</g>
<g clip-path="url(#clip1_108_242)">
<path d="M711.531 64.7426C704.876 68.7032 701.547 70.6821 701.585 73.708C701.624 76.73 705.002 78.7996 711.76 82.9349L713.508 84.0036C715.426 85.1785 716.389 85.7665 717.028 86.6695C717.668 87.5754 717.916 88.6959 718.41 90.9339L718.86 92.9735C720.604 100.856 721.474 104.796 724.263 105.766C727.052 106.738 729.912 104.095 735.628 98.815L737.112 97.4484C738.735 95.946 739.547 95.1977 740.561 94.8685C741.574 94.5393 742.671 94.667 744.871 94.9274L746.868 95.163C754.599 96.0733 758.466 96.5279 760.149 94.1084C761.837 91.6811 760.225 87.982 757.003 80.5799M756.847 68.2851C759.884 60.9703 761.401 57.3105 759.655 54.8397C757.907 52.3698 754.05 52.7222 746.339 53.4326L744.345 53.6156C742.154 53.8174 741.06 53.9179 740.037 53.5625C739.018 53.2062 738.186 52.4337 736.521 50.8889L735.006 49.483C729.15 44.0506 726.224 41.3339 723.458 42.2324C720.693 43.1309 719.922 47.0488 718.378 54.8856" stroke="#4557F4" stroke-width="4" stroke-linecap="round"/>
</g>
<defs>
<filter id="filter0_f_108_242" x="-18" y="14" width="372" height="369" filterUnits="userSpaceOnUse" color-interpolation-filters="sRGB">
<feFlood flood-opacity="0" result="BackgroundImageFix"/>
<feBlend mode="normal" in="SourceGraphic" in2="BackgroundImageFix" result="shape"/>
<feGaussianBlur stdDeviation="63.5" result="effect1_foregroundBlur_108_242"/>
</filter>
<filter id="filter1_f_108_242" x="484" y="8" width="372" height="369" filterUnits="userSpaceOnUse" color-interpolation-filters="sRGB">
<feFlood flood-opacity="0" result="BackgroundImageFix"/>
<feBlend mode="normal" in="SourceGraphic" in2="BackgroundImageFix" result="shape"/>
<feGaussianBlur stdDeviation="63.5" result="effect1_foregroundBlur_108_242"/>
</filter>
<clipPath id="clip0_108_242">
<rect width="24" height="24" fill="white" transform="translate(146.882 0.68689) rotate(12.5)"/>
</clipPath>
<clipPath id="clip1_108_242">
<rect width="73.6908" height="73.6908" fill="white" transform="translate(704.95 27.4871) rotate(12.5)"/>
</clipPath>
</defs>
</svg>
