<svg width="30" height="30" viewBox="0 0 30 30" fill="none" xmlns="http://www.w3.org/2000/svg">
<g id="solar:star-broken" clip-path="url(#clip0_108_237)">
<path id="Vector" d="M10.0968 9.58191C7.57454 9.59327 6.31353 9.59846 5.8238 10.4537C5.33527 11.3083 5.94108 12.4474 7.15389 14.7249L7.46787 15.3138C7.81203 15.9606 7.98498 16.2847 8.01499 16.6437C8.04478 17.0037 7.92911 17.3591 7.69801 18.0689L7.48704 18.7156C6.67362 21.2158 6.26652 22.4653 6.88862 23.1983C7.51049 23.9323 8.75011 23.6632 11.227 23.1266L11.8691 22.9883C12.573 22.835 12.9247 22.7593 13.2635 22.8344C13.6023 22.9096 13.889 23.1268 14.4631 23.5634L14.9847 23.9597C17.0037 25.493 18.0137 26.2598 18.8861 25.8591C19.7609 25.4569 19.92 24.1524 20.2394 21.5427M22.2279 18.0667C24.2894 16.5161 25.3198 15.7397 25.2384 14.7579C25.156 13.7757 24.0156 13.2371 21.7342 12.1619L21.1445 11.8836C20.4962 11.5781 20.1726 11.4254 19.9444 11.1566C19.7171 10.8881 19.6113 10.5338 19.3996 9.82519L19.2067 9.18013C18.4615 6.68776 18.0894 5.44168 17.1648 5.23671C16.2402 5.03174 15.3764 6.00381 13.6477 7.94773" stroke="#4557F4" stroke-width="1.5" stroke-linecap="round"/>
</g>
<defs>
<clipPath id="clip0_108_237">
<rect width="24" height="24" fill="white" transform="translate(5.88208 0.68689) rotate(12.5)"/>
</clipPath>
</defs>
</svg>
